<?xml version="1.0" encoding="utf-8"?>
<svg id="master-artboard" viewBox="0 0 610.5980224609375 476.10040283203125" version="1.1" xmlns="http://www.w3.org/2000/svg" x="0px" y="0px" style="enable-background:new 0 0 336 235.2;" width="610.5980224609375px" height="476.10040283203125px"><rect id="ee-background" x="0" y="0" width="610.5980224609375" height="476.10040283203125" style="fill: white; fill-opacity: 0; pointer-events: none;"/><g transform="matrix(0.5782150626182556, 0, 0, 0.5782150626182556, 101.411376953125, 130.55023956298828)"><g transform="matrix(1, 0, 0, 1, 111.83568157470609, 80.1840735818646)">
	<g>
		<path d="M416,0H74C33.3,0,0,33.4,0,74v342c0,40.7,33.4,74,74,74h342c40.7,0,74-33.4,74-74V74C490,33.4,456.6,0,416,0z M449.3,416&#10;&#9;&#9;&#9;c0,18.8-14.6,33.4-33.4,33.4H74c-18.8,0-33.4-14.6-33.4-33.4V74c0-18.8,14.6-33.4,33.4-33.4h342c18.8,0,33.4,14.6,33.4,33.4v342&#10;&#9;&#9;&#9;H449.3z" style="fill: rgb(48, 46, 55);"/>
		<g>
			<path d="M234.8,169.8c-2.4-5.5-7.8-9-13.8-9s-11.4,3.5-13.8,9L147,308.3c-3.3,7.6,0.2,16.4,7.8,19.7c2,0.9,4,1.3,6,1.3&#10;&#9;&#9;&#9;&#9;c5.8,0,11.3-3.4,13.8-9l13.2-30.2h66.9l13.2,30.2c3.3,7.6,12.1,11.1,19.7,7.8c7.6-3.3,11.1-12.2,7.8-19.7L234.8,169.8z&#10;&#9;&#9;&#9;&#9; M200.7,260l20.4-46.8l20.4,46.8H200.7z" style="fill: rgb(239, 202, 8);"/>
			<path d="M329.3,217.9c-8.3,0-15,6.7-15,15v81.4c0,8.3,6.7,15,15,15s15-6.7,15-15v-81.4C344.3,224.6,337.6,217.9,329.3,217.9z" style="fill: rgb(36, 145, 165);"/>
			<path d="M329.3,166.4c-8.3,0-15,6.7-15,15v4c0,8.3,6.7,15,15,15s15-6.7,15-15v-4C344.3,173.1,337.6,166.4,329.3,166.4z" style="fill: rgb(36, 145, 165);"/>
		</g>
	<path d="M 325.9910888671875 224.9539794921875 L 325.9910888671875 224.9539794921875" style="fill: rgb(239, 202, 8); fill-opacity: 1; stroke: rgb(0, 0, 0); stroke-opacity: 1; stroke-width: 0; paint-order: fill;"/></g>
</g><g>
</g><g>
</g><g>
</g><g>
</g><g>
</g><g>
</g><g>
</g><g>
</g><g>
</g><g>
</g><g>
</g><g>
</g><g>
</g><g>
</g><g>
</g></g><g transform="matrix(3.378270864486695, 0, 0, 3.378270864486695, 313.7081220774559, -13.096847534179659)"><g>
	<g>
		<path d="M39.256,6.5H9.744C4.371,6.5,0,10.885,0,16.274v16.451c0,5.39,4.371,9.774,9.744,9.774h29.512&#10;&#9;&#9;&#9;c5.373,0,9.744-4.385,9.744-9.774V16.274C49,10.885,44.629,6.5,39.256,6.5z M47,32.726c0,4.287-3.474,7.774-7.744,7.774H9.744&#10;&#9;&#9;&#9;C5.474,40.5,2,37.012,2,32.726V16.274C2,11.988,5.474,8.5,9.744,8.5h29.512c4.27,0,7.744,3.488,7.744,7.774V32.726z" style="fill: rgb(166, 0, 30);"/>
		<path d="M33.36,24.138l-13.855-8.115c-0.308-0.18-0.691-0.183-1.002-0.005S18,16.527,18,16.886v16.229&#10;&#9;&#9;&#9;c0,0.358,0.192,0.69,0.502,0.868c0.154,0.088,0.326,0.132,0.498,0.132c0.175,0,0.349-0.046,0.505-0.137l13.855-8.113&#10;&#9;&#9;&#9;c0.306-0.179,0.495-0.508,0.495-0.863S33.667,24.317,33.36,24.138z M20,31.37V18.63l10.876,6.371L20,31.37z" style="fill: rgb(255, 255, 255);"/>
	</g>
</g><g>
</g><g>
</g><g>
</g><g>
</g><g>
</g><g>
</g><g>
</g><g>
</g><g>
</g><g>
</g><g>
</g><g>
</g><g>
</g><g>
</g><g>
</g></g><g transform="matrix(5.900845527648926, 0, 0, 5.900845527648926, 2.678131103515625, 107.4660873413086)"><path fill-rule="evenodd" clip-rule="evenodd" d="M13.8429 2.67879C16.0153 3.08756 17.8473 4.13364 18.7022 5.08211C18.882 5.28165 18.8721 5.58763 18.6796 5.77506L16.0344 8.35132C15.8719 8.50965 15.6231 8.53865 15.4285 8.42196C13.3899 7.19963 11.6897 7.14808 10.4053 7.58054C9.10095 8.01969 8.16974 8.97627 7.72215 9.85456C6.80519 11.6539 6.91305 14.6022 9.45653 16.2024C11.0501 17.2049 12.6989 17.2012 14.0366 16.6681C15.3938 16.1272 16.3956 15.0576 16.7088 13.9761C16.7857 13.7109 17.063 13.5581 17.3282 13.6349C17.5934 13.7118 17.7462 13.9891 17.6693 14.2543C17.2555 15.6832 15.9974 16.9632 14.4068 17.5971C12.7967 18.2387 10.8096 18.235 8.92403 17.0488C5.83243 15.1038 5.74351 11.5348 6.83118 9.40051C7.38591 8.31198 8.51081 7.16323 10.0862 6.63282C11.602 6.12245 13.4862 6.20058 15.6075 7.37128L17.6125 5.41849C16.8119 4.73761 15.3792 3.98541 13.658 3.66154C11.6699 3.28743 9.3587 3.49659 7.26073 4.99289C4.73262 6.79597 3.70449 9.06153 3.52812 11.229C3.35014 13.4162 4.03926 15.5254 4.9862 16.9681C6.12928 18.7096 9.43068 21.5943 15.0534 20.0687C17.0716 19.5211 18.4815 18.1222 19.3657 16.3758C20.1787 14.7702 20.5349 12.8903 20.4973 11.1802H12.6772V13.7814H15.1844C15.4605 13.7814 15.6844 14.0053 15.6844 14.2814C15.6844 14.5576 15.4605 14.7814 15.1844 14.7814H12.1772C11.901 14.7814 11.6772 14.5576 11.6772 14.2814V10.6802C11.6772 10.4041 11.901 10.1802 12.1772 10.1802H20.9759C21.2394 10.1802 21.4577 10.3847 21.4749 10.6476C21.6047 12.6327 21.2362 14.8952 20.2579 16.8275C19.2761 18.7667 17.6655 20.3961 15.3153 21.0338C9.18513 22.6971 5.47519 19.5355 4.1502 17.5168C3.09474 15.9088 2.33345 13.5807 2.53142 11.1479C2.73099 8.69523 3.90517 6.15784 6.68007 4.17875C9.04657 2.49093 11.6498 2.2661 13.8429 2.67879Z" fill="black" style="fill: rgb(65, 145, 0);"/></g><g transform="matrix(2.1590914726257324, 0, 0, 2.1590914726257324, -50.82841491699219, 306.24401092529297)"><g transform="matrix(0.9969558119773865, 0, 0, 0.9969558119773865, 33.150228029943435, -7.241080483960843)">
	<g>
		<path d="M9.5,37h10v5c0,0.404,0.244,0.77,0.617,0.924C20.241,42.976,20.371,43,20.5,43c0.26,0,0.516-0.102,0.707-0.293L26.914,37&#10;&#9;&#9;&#9;H38c0.265,0,0.52-0.105,0.707-0.293l6.5-6.5C45.395,30.02,45.5,29.766,45.5,29.5V6c0-0.553-0.448-1-1-1h-35c-0.552,0-1,0.447-1,1&#10;&#9;&#9;&#9;v30C8.5,36.553,8.948,37,9.5,37z M10.5,7h33v22.086L37.586,35H26.5c-0.265,0-0.52,0.105-0.707,0.293L21.5,39.586V36&#10;&#9;&#9;&#9;c0-0.553-0.448-1-1-1h-10V7z" transform="matrix(1, 0, 0, 1, -4.520763904855244, 2.8254827585618614)" style="fill: rgb(133, 35, 142);"/>
		<path d="M50.5,0H5C4.644,0,4.315,0.189,4.136,0.496l-3.5,6C0.547,6.649,0.5,6.823,0.5,7v37c0,0.553,0.448,1,1,1h11v6&#10;&#9;&#9;&#9;c0,0.553,0.448,1,1,1h7c0.247,0,0.485-0.092,0.669-0.257L28.662,45H38c0.251,0,0.493-0.095,0.677-0.264l12.5-11.5&#10;&#9;&#9;&#9;c0.206-0.189,0.323-0.457,0.323-0.736V1C51.5,0.447,51.052,0,50.5,0z M49.5,32.062L37.61,43h-9.332&#10;&#9;&#9;&#9;c-0.247,0-0.485,0.092-0.669,0.257L20.116,50H14.5v-6c0-0.553-0.448-1-1-1h-11V7.271L5.574,2H49.5V32.062z" transform="matrix(1.0003719329833984, 0, 0, 1.0003719329833984, -4.53992894391763, 2.508466156999418)" style="fill: rgb(133, 35, 142);"/>
		<path d="M21.5,28h4c0.552,0,1-0.447,1-1V14c0-0.553-0.448-1-1-1h-4c-0.552,0-1,0.447-1,1v13C20.5,27.553,20.948,28,21.5,28z&#10;&#9;&#9;&#9; M22.5,15h2v11h-2V15z" transform="matrix(1, 0, 0, 1, -4.520763904855244, 2.8254827585618614)" style="fill: rgb(133, 35, 142);"/>
		<path d="M31.5,28h4c0.552,0,1-0.447,1-1V14c0-0.553-0.448-1-1-1h-4c-0.552,0-1,0.447-1,1v13C30.5,27.553,30.948,28,31.5,28z&#10;&#9;&#9;&#9; M32.5,15h2v11h-2V15z" transform="matrix(1, 0, 0, 1, -4.520763904855244, 2.8254827585618614)" style="fill: rgb(133, 35, 142);"/>
	<path d="M -64.27002716064453 67.59001159667969" style="fill: rgb(127, 40, 132); fill-opacity: 1; stroke: rgb(0, 0, 0); stroke-opacity: 1; stroke-width: 0; paint-order: fill;" transform="matrix(0.9853564040566197, 0, 0, 0.9853564040566197, 0.7541453028058548, -0.0046422359630084575)"/><path d="M 308.6938781738281 28.033231735229492" style="fill: rgb(133, 35, 142); fill-opacity: 1; stroke: rgb(0, 0, 0); stroke-opacity: 1; stroke-width: 0; paint-order: fill;"/></g>
</g><g>
</g><g>
</g><g>
</g><g>
</g><g>
</g><g>
</g><g>
</g><g>
</g><g>
</g><g>
</g><g>
</g><g>
</g><g>
</g><g>
</g><g>
</g></g><g transform="matrix(2.368450880050659, 0, 0, 2.368450880050659, 493.0621313829172, 147.83515032256048)"><g>
	<g>
		<path d="M5.392,0.492C2.268,0.492,0,2.647,0,5.614c0,2.966,2.223,5.119,5.284,5.119c1.588,0,2.956-0.515,3.957-1.489&#10;&#9;&#9;&#9;c0.96-0.935,1.489-2.224,1.488-3.653C10.659,2.589,8.464,0.492,5.392,0.492z M7.847,7.811C7.227,8.414,6.34,8.733,5.284,8.733&#10;&#9;&#9;&#9;C3.351,8.733,2,7.451,2,5.614c0-1.867,1.363-3.122,3.392-3.122c1.983,0,3.293,1.235,3.338,3.123&#10;&#9;&#9;&#9;C8.729,6.477,8.416,7.256,7.847,7.811z" style="fill: rgb(18, 65, 130);"/>
		<path d="M0.959,45.467h8.988V12.422H0.959V45.467z M2.959,14.422h4.988v29.044H2.959V14.422z" style="fill: rgb(18, 65, 130);"/>
		<path d="M33.648,12.422c-4.168,0-6.72,1.439-8.198,2.792l-0.281-2.792H15v33.044h9.959V28.099c0-0.748,0.303-2.301,0.493-2.711&#10;&#9;&#9;&#9;c1.203-2.591,2.826-2.591,5.284-2.591c2.831,0,5.223,2.655,5.223,5.797v16.874h10v-18.67&#10;&#9;&#9;&#9;C45.959,16.92,39.577,12.422,33.648,12.422z M43.959,43.467h-6V28.593c0-4.227-3.308-7.797-7.223-7.797&#10;&#9;&#9;&#9;c-2.512,0-5.358,0-7.099,3.75c-0.359,0.775-0.679,2.632-0.679,3.553v15.368H17V14.422h6.36l0.408,4.044h1.639l0.293-0.473&#10;&#9;&#9;&#9;c0.667-1.074,2.776-3.572,7.948-3.572c4.966,0,10.311,3.872,10.311,12.374V43.467z" style="fill: rgb(18, 65, 130);"/>
	</g>
</g><g>
</g><g>
</g><g>
</g><g>
</g><g>
</g><g>
</g><g>
</g><g>
</g><g>
</g><g>
</g><g>
</g><g>
</g><g>
</g><g>
</g><g>
</g></g><g transform="matrix(2.3191840648651123, 0, 0, 2.3191840648651123, 468.59308518633316, 290.3788882916053)"><g>
	<path d="M34.094,8.688h4.756V0.005h-8.643c-0.721-0.03-9.51-0.198-11.788,8.489c-0.033,0.091-0.761,2.157-0.761,6.983l-7.903,0.024&#10;&#9;&#9;v9.107l7.913-0.023v24.021h12.087v-24h8v-9.131h-8v-2.873C29.755,10.816,30.508,8.688,34.094,8.688z M35.755,17.474v5.131h-8v24&#10;&#9;&#9;h-8.087V22.579l-7.913,0.023v-5.107l7.934-0.023l-0.021-1.017c-0.104-5.112,0.625-7.262,0.658-7.365&#10;&#9;&#9;c1.966-7.482,9.473-7.106,9.795-7.086l6.729,0.002v4.683h-2.756c-4.673,0-6.338,3.054-6.338,5.912v4.873L35.755,17.474&#10;&#9;&#9;L35.755,17.474z" style="fill: rgb(7, 168, 217);"/>
</g><g>
</g><g>
</g><g>
</g><g>
</g><g>
</g><g>
</g><g>
</g><g>
</g><g>
</g><g>
</g><g>
</g><g>
</g><g>
</g><g>
</g><g>
</g></g><g transform="matrix(0.22463616728782654, 0, 0, 0.22463616728782654, 155.09559361387107, 18.301452343258575)"><g>
	<g>
		<g>
			<path d="M245,135c-60.654,0-110,49.346-110,110s49.346,110,110,110s110-49.346,110-110S305.654,135,245,135z M245,335&#10;&#9;&#9;&#9;&#9;c-49.626,0-90-40.374-90-90c0-49.626,40.374-90,90-90c49.626,0,90,40.374,90,90C335,294.626,294.626,335,245,335z" style="fill: rgb(209, 54, 217);"/>
			<path d="M355,90c-19.299,0-35,15.701-35,35s15.701,35,35,35s35-15.701,35-35S374.299,90,355,90z M355,140&#10;&#9;&#9;&#9;&#9;c-8.272,0-15-6.729-15-15s6.728-15,15-15c8.272,0,15,6.729,15,15S363.272,140,355,140z" style="fill: rgb(209, 54, 217);"/>
			<path d="M245,175c-38.598,0-70,31.402-70,70c0,38.598,31.402,70,70,70c38.598,0,70-31.402,70-70C315,206.402,283.598,175,245,175&#10;&#9;&#9;&#9;&#9;z M245,295c-27.57,0-50-22.43-50-50s22.43-50,50-50s50,22.43,50,50S272.57,295,245,295z" style="fill: rgb(209, 54, 217);"/>
			<path d="M340,45H150C94.86,45,50,89.86,50,145v195c0,55.14,44.86,100,100,100h190c55.141,0,100-44.86,100-100V145&#10;&#9;&#9;&#9;&#9;C440,89.86,395.141,45,340,45z M420,340c0,44.112-35.888,80-80,80H150c-44.112,0-80-35.888-80-80V145c0-44.112,35.888-80,80-80&#10;&#9;&#9;&#9;&#9;h190c44.112,0,80,35.888,80,80V340z" style="fill: rgb(209, 54, 217);"/>
			<path d="M390,0H100C44.86,0,0,44.86,0,100v290c0,55.14,44.86,100,100,100h290c55.141,0,100-44.86,100-100V100&#10;&#9;&#9;&#9;&#9;C490,44.86,445.141,0,390,0z M470,390c0,44.112-35.888,80-80,80H100c-44.112,0-80-35.888-80-80V100c0-44.112,35.888-80,80-80h290&#10;&#9;&#9;&#9;&#9;c44.112,0,80,35.888,80,80V390z" style="fill: rgb(209, 54, 217);"/>
		</g>
	</g>
</g><g>
</g><g>
</g><g>
</g><g>
</g><g>
</g><g>
</g><g>
</g><g>
</g><g>
</g><g>
</g><g>
</g><g>
</g><g>
</g><g>
</g><g>
</g></g></svg>