<?xml version="1.0" encoding="utf-8"?>
<svg id="master-artboard" viewBox="0 0 839.9760131835938 394.3540344238281" version="1.1" xmlns="http://www.w3.org/2000/svg" x="0px" y="0px" style="enable-background:new 0 0 336 235.2;" width="839.9760131835938px" height="394.3540344238281px"><rect id="ee-background" x="0" y="0" width="839.9760131835938" height="394.3540344238281" style="fill: white; fill-opacity: 0; pointer-events: none;"/><g transform="matrix(0.8559137582778931, 0, 0, 0.8559137582778931, 70.82869338989258, -34.131561279296875)"><g transform="matrix(0.5798320770263673, 0, 0, 0.5798320770263673, 89.28015430672502, 96.92017650439973)">
	<g transform="matrix(1, 0, 0, 1, -345.6541564573405, -40.240333230052386)"><path d="M89.104,219.999h26.626c17.666,51.873,66.863,89.289,124.637,89.289c41.424,0,78.433-19.241,102.577-49.248h34.228&#10;&#9;&#9;c6.352,0,11.5-5.148,11.5-11.5v-28.541h5.184c12.474,0,22.621-10.148,22.621-22.622V139.54c0-11.022-7.926-20.224-18.376-22.217&#10;&#9;&#9;c-7.547-34.184-26.132-63.235-54.028-84.307C315.476,11.417,279.615,0,240.366,0C160.701,0,97.864,47.184,82.511,117.9&#10;&#9;&#9;c-9.268,2.83-16.029,11.459-16.029,21.64v57.837C66.482,209.851,76.63,219.999,89.104,219.999z M89.482,196.999v-57.081h24.789&#10;&#9;&#9;c-3.588,11.963-5.525,24.633-5.525,37.748c0,6.567,0.49,13.021,1.423,19.333H89.482z M240.366,286.288&#10;&#9;&#9;c-59.894,0-108.621-48.728-108.621-108.622c0-59.894,48.727-108.62,108.621-108.62c59.895,0,108.622,48.727,108.622,108.62&#10;&#9;&#9;c0,21.898-6.52,42.297-17.709,59.374h-97.586c-6.351,0-11.5,5.149-11.5,11.5c0,6.352,5.149,11.5,11.5,11.5h77.398&#10;&#9;&#9;C292.073,276.391,267.355,286.288,240.366,286.288z M365.671,237.04h-7.857c2.777-5.474,5.188-11.163,7.189-17.041h0.667V237.04z&#10;&#9;&#9; M393.476,196.999h-22.91c0.933-6.311,1.423-12.766,1.423-19.333c0-13.115-1.938-25.785-5.525-37.748h27.013V196.999z M240.366,23&#10;&#9;&#9;c66.29,0,118.756,37.303,133.954,93.918h-17.217c-21.988-42.08-66.06-70.872-116.737-70.872&#10;&#9;&#9;c-50.676,0-94.748,28.792-116.736,70.872h-17.22C121.593,60.338,174.166,23,240.366,23z" style="fill: rgb(239, 202, 8);" transform="matrix(1, 0, 0, 1, 0, 0)"/></g>
	<g transform="matrix(1, 0, 0, 1, -341.52696522306553, -28.89049530029297)"><path d="M358.477,314.352H122.065c-36.506,0-66.206,29.699-66.206,66.205v88.484c0,6.352,5.149,11.5,11.5,11.5&#10;&#9;&#9;s11.5-5.148,11.5-11.5v-88.484c0-23.823,19.382-43.205,43.206-43.205h236.412c23.824,0,43.207,19.382,43.207,43.206v88.484&#10;&#9;&#9;c0,6.352,5.148,11.5,11.5,11.5c6.352,0,11.5-5.148,11.5-11.5v-88.484C424.684,344.052,394.984,314.352,358.477,314.352z" style="fill: rgb(239, 202, 8);" transform="matrix(1, 0, 0, 1, 0, 0)"/></g>
<path d="M -72.9893569946289 131.6662139892578 C -72.9893569946289 131.6662139892578 -72.9893569946289 131.6662139892578 -98.78443908691406 119.28457641601562" style="fill: rgb(36, 145, 165); fill-opacity: 1; stroke: rgb(0, 0, 0); stroke-opacity: 1; stroke-width: 0; paint-order: fill;"/><path d="M -121.48411560058594 67.69440460205078 L -121.48411560058594 67.69440460205078 L -96.72083282470703 29.517675399780273" style="fill: rgb(36, 145, 165); fill-opacity: 1; stroke: rgb(0, 0, 0); stroke-opacity: 1; stroke-width: 0; paint-order: stroke;" transform="matrix(1, 0, 0, 1, -79.44886383738833, -84.60788138248219)"/></g><g>
</g><g>
</g><g>
</g><g>
</g><g>
</g><g>
</g><g>
</g><g>
</g><g>
</g><g>
</g><g>
</g><g>
</g><g>
</g><g>
</g><g>
</g></g><g transform="matrix(0.8559137582778931, 0, 0, 0.8559137582778931, 279.60116958618164, -35.426239013671875)"><g transform="matrix(0.5798320770263673, 0, 0, 0.5798320770263673, 89.28015430672502, 96.92017650439973)">
	<g transform="matrix(1, 0, 0, 1, -345.6541564573405, -40.240333230052386)"><path d="M89.104,219.999h26.626c17.666,51.873,66.863,89.289,124.637,89.289c41.424,0,78.433-19.241,102.577-49.248h34.228&#10;&#9;&#9;c6.352,0,11.5-5.148,11.5-11.5v-28.541h5.184c12.474,0,22.621-10.148,22.621-22.622V139.54c0-11.022-7.926-20.224-18.376-22.217&#10;&#9;&#9;c-7.547-34.184-26.132-63.235-54.028-84.307C315.476,11.417,279.615,0,240.366,0C160.701,0,97.864,47.184,82.511,117.9&#10;&#9;&#9;c-9.268,2.83-16.029,11.459-16.029,21.64v57.837C66.482,209.851,76.63,219.999,89.104,219.999z M89.482,196.999v-57.081h24.789&#10;&#9;&#9;c-3.588,11.963-5.525,24.633-5.525,37.748c0,6.567,0.49,13.021,1.423,19.333H89.482z M240.366,286.288&#10;&#9;&#9;c-59.894,0-108.621-48.728-108.621-108.622c0-59.894,48.727-108.62,108.621-108.62c59.895,0,108.622,48.727,108.622,108.62&#10;&#9;&#9;c0,21.898-6.52,42.297-17.709,59.374h-97.586c-6.351,0-11.5,5.149-11.5,11.5c0,6.352,5.149,11.5,11.5,11.5h77.398&#10;&#9;&#9;C292.073,276.391,267.355,286.288,240.366,286.288z M365.671,237.04h-7.857c2.777-5.474,5.188-11.163,7.189-17.041h0.667V237.04z&#10;&#9;&#9; M393.476,196.999h-22.91c0.933-6.311,1.423-12.766,1.423-19.333c0-13.115-1.938-25.785-5.525-37.748h27.013V196.999z M240.366,23&#10;&#9;&#9;c66.29,0,118.756,37.303,133.954,93.918h-17.217c-21.988-42.08-66.06-70.872-116.737-70.872&#10;&#9;&#9;c-50.676,0-94.748,28.792-116.736,70.872h-17.22C121.593,60.338,174.166,23,240.366,23z" style="fill: rgb(239, 202, 8);" transform="matrix(1, 0, 0, 1, 0, 0)"/></g>
	<g transform="matrix(1, 0, 0, 1, -341.52696522306553, -28.89049530029297)"><path d="M358.477,314.352H122.065c-36.506,0-66.206,29.699-66.206,66.205v88.484c0,6.352,5.149,11.5,11.5,11.5&#10;&#9;&#9;s11.5-5.148,11.5-11.5v-88.484c0-23.823,19.382-43.205,43.206-43.205h236.412c23.824,0,43.207,19.382,43.207,43.206v88.484&#10;&#9;&#9;c0,6.352,5.148,11.5,11.5,11.5c6.352,0,11.5-5.148,11.5-11.5v-88.484C424.684,344.052,394.984,314.352,358.477,314.352z" style="fill: rgb(239, 202, 8);" transform="matrix(1, 0, 0, 1, 0, 0)"/></g>
<path d="M -72.9893569946289 131.6662139892578 C -72.9893569946289 131.6662139892578 -72.9893569946289 131.6662139892578 -98.78443908691406 119.28457641601562" style="fill: rgb(36, 145, 165); fill-opacity: 1; stroke: rgb(0, 0, 0); stroke-opacity: 1; stroke-width: 0; paint-order: fill;"/><path d="M -121.48411560058594 67.69440460205078 L -121.48411560058594 67.69440460205078 L -96.72083282470703 29.517675399780273" style="fill: rgb(36, 145, 165); fill-opacity: 1; stroke: rgb(0, 0, 0); stroke-opacity: 1; stroke-width: 0; paint-order: stroke;" transform="matrix(1, 0, 0, 1, -79.44886383738833, -84.60788138248219)"/></g><g>
</g><g>
</g><g>
</g><g>
</g><g>
</g><g>
</g><g>
</g><g>
</g><g>
</g><g>
</g><g>
</g><g>
</g><g>
</g><g>
</g><g>
</g></g><g transform="matrix(0.8559137582778931, 0, 0, 0.8559137582778931, 493.1179542541504, -37.866432189941406)"><g transform="matrix(0.5798320770263673, 0, 0, 0.5798320770263673, 89.28015430672502, 96.92017650439973)">
	<g transform="matrix(1, 0, 0, 1, -345.6541564573405, -40.240333230052386)"><path d="M89.104,219.999h26.626c17.666,51.873,66.863,89.289,124.637,89.289c41.424,0,78.433-19.241,102.577-49.248h34.228&#10;&#9;&#9;c6.352,0,11.5-5.148,11.5-11.5v-28.541h5.184c12.474,0,22.621-10.148,22.621-22.622V139.54c0-11.022-7.926-20.224-18.376-22.217&#10;&#9;&#9;c-7.547-34.184-26.132-63.235-54.028-84.307C315.476,11.417,279.615,0,240.366,0C160.701,0,97.864,47.184,82.511,117.9&#10;&#9;&#9;c-9.268,2.83-16.029,11.459-16.029,21.64v57.837C66.482,209.851,76.63,219.999,89.104,219.999z M89.482,196.999v-57.081h24.789&#10;&#9;&#9;c-3.588,11.963-5.525,24.633-5.525,37.748c0,6.567,0.49,13.021,1.423,19.333H89.482z M240.366,286.288&#10;&#9;&#9;c-59.894,0-108.621-48.728-108.621-108.622c0-59.894,48.727-108.62,108.621-108.62c59.895,0,108.622,48.727,108.622,108.62&#10;&#9;&#9;c0,21.898-6.52,42.297-17.709,59.374h-97.586c-6.351,0-11.5,5.149-11.5,11.5c0,6.352,5.149,11.5,11.5,11.5h77.398&#10;&#9;&#9;C292.073,276.391,267.355,286.288,240.366,286.288z M365.671,237.04h-7.857c2.777-5.474,5.188-11.163,7.189-17.041h0.667V237.04z&#10;&#9;&#9; M393.476,196.999h-22.91c0.933-6.311,1.423-12.766,1.423-19.333c0-13.115-1.938-25.785-5.525-37.748h27.013V196.999z M240.366,23&#10;&#9;&#9;c66.29,0,118.756,37.303,133.954,93.918h-17.217c-21.988-42.08-66.06-70.872-116.737-70.872&#10;&#9;&#9;c-50.676,0-94.748,28.792-116.736,70.872h-17.22C121.593,60.338,174.166,23,240.366,23z" style="fill: rgb(239, 202, 8);" transform="matrix(1, 0, 0, 1, 0, 0)"/></g>
	<g transform="matrix(1, 0, 0, 1, -341.52696522306553, -28.89049530029297)"><path d="M358.477,314.352H122.065c-36.506,0-66.206,29.699-66.206,66.205v88.484c0,6.352,5.149,11.5,11.5,11.5&#10;&#9;&#9;s11.5-5.148,11.5-11.5v-88.484c0-23.823,19.382-43.205,43.206-43.205h236.412c23.824,0,43.207,19.382,43.207,43.206v88.484&#10;&#9;&#9;c0,6.352,5.148,11.5,11.5,11.5c6.352,0,11.5-5.148,11.5-11.5v-88.484C424.684,344.052,394.984,314.352,358.477,314.352z" style="fill: rgb(239, 202, 8);" transform="matrix(1, 0, 0, 1, 0, 0)"/></g>
<path d="M -72.9893569946289 131.6662139892578 C -72.9893569946289 131.6662139892578 -72.9893569946289 131.6662139892578 -98.78443908691406 119.28457641601562" style="fill: rgb(36, 145, 165); fill-opacity: 1; stroke: rgb(0, 0, 0); stroke-opacity: 1; stroke-width: 0; paint-order: fill;"/><path d="M -121.48411560058594 67.69440460205078 L -121.48411560058594 67.69440460205078 L -96.72083282470703 29.517675399780273" style="fill: rgb(36, 145, 165); fill-opacity: 1; stroke: rgb(0, 0, 0); stroke-opacity: 1; stroke-width: 0; paint-order: stroke;" transform="matrix(1, 0, 0, 1, -79.44886383738833, -84.60788138248219)"/></g><g>
</g><g>
</g><g>
</g><g>
</g><g>
</g><g>
</g><g>
</g><g>
</g><g>
</g><g>
</g><g>
</g><g>
</g><g>
</g><g>
</g><g>
</g></g><g transform="matrix(0.8559137582778931, 0, 0, 0.8559137582778931, 705.4145851135254, -37.866424560546875)"><g transform="matrix(0.5798320770263673, 0, 0, 0.5798320770263673, 89.28015430672502, 96.92017650439973)">
	<g transform="matrix(1, 0, 0, 1, -345.6541564573405, -40.240333230052386)"><path d="M89.104,219.999h26.626c17.666,51.873,66.863,89.289,124.637,89.289c41.424,0,78.433-19.241,102.577-49.248h34.228&#10;&#9;&#9;c6.352,0,11.5-5.148,11.5-11.5v-28.541h5.184c12.474,0,22.621-10.148,22.621-22.622V139.54c0-11.022-7.926-20.224-18.376-22.217&#10;&#9;&#9;c-7.547-34.184-26.132-63.235-54.028-84.307C315.476,11.417,279.615,0,240.366,0C160.701,0,97.864,47.184,82.511,117.9&#10;&#9;&#9;c-9.268,2.83-16.029,11.459-16.029,21.64v57.837C66.482,209.851,76.63,219.999,89.104,219.999z M89.482,196.999v-57.081h24.789&#10;&#9;&#9;c-3.588,11.963-5.525,24.633-5.525,37.748c0,6.567,0.49,13.021,1.423,19.333H89.482z M240.366,286.288&#10;&#9;&#9;c-59.894,0-108.621-48.728-108.621-108.622c0-59.894,48.727-108.62,108.621-108.62c59.895,0,108.622,48.727,108.622,108.62&#10;&#9;&#9;c0,21.898-6.52,42.297-17.709,59.374h-97.586c-6.351,0-11.5,5.149-11.5,11.5c0,6.352,5.149,11.5,11.5,11.5h77.398&#10;&#9;&#9;C292.073,276.391,267.355,286.288,240.366,286.288z M365.671,237.04h-7.857c2.777-5.474,5.188-11.163,7.189-17.041h0.667V237.04z&#10;&#9;&#9; M393.476,196.999h-22.91c0.933-6.311,1.423-12.766,1.423-19.333c0-13.115-1.938-25.785-5.525-37.748h27.013V196.999z M240.366,23&#10;&#9;&#9;c66.29,0,118.756,37.303,133.954,93.918h-17.217c-21.988-42.08-66.06-70.872-116.737-70.872&#10;&#9;&#9;c-50.676,0-94.748,28.792-116.736,70.872h-17.22C121.593,60.338,174.166,23,240.366,23z" style="fill: rgb(239, 202, 8);" transform="matrix(1, 0, 0, 1, 0, 0)"/></g>
	<g transform="matrix(1, 0, 0, 1, -341.52696522306553, -28.89049530029297)"><path d="M358.477,314.352H122.065c-36.506,0-66.206,29.699-66.206,66.205v88.484c0,6.352,5.149,11.5,11.5,11.5&#10;&#9;&#9;s11.5-5.148,11.5-11.5v-88.484c0-23.823,19.382-43.205,43.206-43.205h236.412c23.824,0,43.207,19.382,43.207,43.206v88.484&#10;&#9;&#9;c0,6.352,5.148,11.5,11.5,11.5c6.352,0,11.5-5.148,11.5-11.5v-88.484C424.684,344.052,394.984,314.352,358.477,314.352z" style="fill: rgb(239, 202, 8);" transform="matrix(1, 0, 0, 1, 0, 0)"/></g>
<path d="M -72.9893569946289 131.6662139892578 C -72.9893569946289 131.6662139892578 -72.9893569946289 131.6662139892578 -98.78443908691406 119.28457641601562" style="fill: rgb(36, 145, 165); fill-opacity: 1; stroke: rgb(0, 0, 0); stroke-opacity: 1; stroke-width: 0; paint-order: fill;"/><path d="M -121.48411560058594 67.69440460205078 L -121.48411560058594 67.69440460205078 L -96.72083282470703 29.517675399780273" style="fill: rgb(36, 145, 165); fill-opacity: 1; stroke: rgb(0, 0, 0); stroke-opacity: 1; stroke-width: 0; paint-order: stroke;" transform="matrix(1, 0, 0, 1, -79.44886383738833, -84.60788138248219)"/></g><g>
</g><g>
</g><g>
</g><g>
</g><g>
</g><g>
</g><g>
</g><g>
</g><g>
</g><g>
</g><g>
</g><g>
</g><g>
</g><g>
</g><g>
</g></g><g transform="matrix(0.8559137582778931, 0, 0, 0.8559137582778931, 167.3523292541504, 80.48284912109375)"><g transform="matrix(0.5798320770263673, 0, 0, 0.5798320770263673, 89.28015430672502, 96.92017650439973)">
	<g transform="matrix(1, 0, 0, 1, -345.6541564573405, -40.240333230052386)"><path d="M89.104,219.999h26.626c17.666,51.873,66.863,89.289,124.637,89.289c41.424,0,78.433-19.241,102.577-49.248h34.228&#10;&#9;&#9;c6.352,0,11.5-5.148,11.5-11.5v-28.541h5.184c12.474,0,22.621-10.148,22.621-22.622V139.54c0-11.022-7.926-20.224-18.376-22.217&#10;&#9;&#9;c-7.547-34.184-26.132-63.235-54.028-84.307C315.476,11.417,279.615,0,240.366,0C160.701,0,97.864,47.184,82.511,117.9&#10;&#9;&#9;c-9.268,2.83-16.029,11.459-16.029,21.64v57.837C66.482,209.851,76.63,219.999,89.104,219.999z M89.482,196.999v-57.081h24.789&#10;&#9;&#9;c-3.588,11.963-5.525,24.633-5.525,37.748c0,6.567,0.49,13.021,1.423,19.333H89.482z M240.366,286.288&#10;&#9;&#9;c-59.894,0-108.621-48.728-108.621-108.622c0-59.894,48.727-108.62,108.621-108.62c59.895,0,108.622,48.727,108.622,108.62&#10;&#9;&#9;c0,21.898-6.52,42.297-17.709,59.374h-97.586c-6.351,0-11.5,5.149-11.5,11.5c0,6.352,5.149,11.5,11.5,11.5h77.398&#10;&#9;&#9;C292.073,276.391,267.355,286.288,240.366,286.288z M365.671,237.04h-7.857c2.777-5.474,5.188-11.163,7.189-17.041h0.667V237.04z&#10;&#9;&#9; M393.476,196.999h-22.91c0.933-6.311,1.423-12.766,1.423-19.333c0-13.115-1.938-25.785-5.525-37.748h27.013V196.999z M240.366,23&#10;&#9;&#9;c66.29,0,118.756,37.303,133.954,93.918h-17.217c-21.988-42.08-66.06-70.872-116.737-70.872&#10;&#9;&#9;c-50.676,0-94.748,28.792-116.736,70.872h-17.22C121.593,60.338,174.166,23,240.366,23z" style="fill: rgb(36, 145, 165);" transform="matrix(1, 0, 0, 1, 0, 0)"/></g>
	<g transform="matrix(1, 0, 0, 1, -341.52696522306553, -28.89049530029297)"><path d="M358.477,314.352H122.065c-36.506,0-66.206,29.699-66.206,66.205v88.484c0,6.352,5.149,11.5,11.5,11.5&#10;&#9;&#9;s11.5-5.148,11.5-11.5v-88.484c0-23.823,19.382-43.205,43.206-43.205h236.412c23.824,0,43.207,19.382,43.207,43.206v88.484&#10;&#9;&#9;c0,6.352,5.148,11.5,11.5,11.5c6.352,0,11.5-5.148,11.5-11.5v-88.484C424.684,344.052,394.984,314.352,358.477,314.352z" style="fill: rgb(36, 145, 165);" transform="matrix(1, 0, 0, 1, 0, 0)"/></g>
<path d="M -72.9893569946289 131.6662139892578 C -72.9893569946289 131.6662139892578 -72.9893569946289 131.6662139892578 -98.78443908691406 119.28457641601562" style="fill: rgb(36, 145, 165); fill-opacity: 1; stroke: rgb(0, 0, 0); stroke-opacity: 1; stroke-width: 0; paint-order: fill;"/><path d="M -121.48411560058594 67.69440460205078 L -121.48411560058594 67.69440460205078 L -96.72083282470703 29.517675399780273" style="fill: rgb(36, 145, 165); fill-opacity: 1; stroke: rgb(0, 0, 0); stroke-opacity: 1; stroke-width: 0; paint-order: stroke;" transform="matrix(1, 0, 0, 1, -79.44886383738833, -84.60788138248219)"/></g><g>
</g><g>
</g><g>
</g><g>
</g><g>
</g><g>
</g><g>
</g><g>
</g><g>
</g><g>
</g><g>
</g><g>
</g><g>
</g><g>
</g><g>
</g></g><g transform="matrix(0.8559137582778931, 0, 0, 0.8559137582778931, 386.96960830688477, 80.48287963867188)"><g transform="matrix(0.5798320770263673, 0, 0, 0.5798320770263673, 89.28015430672502, 96.92017650439973)">
	<g transform="matrix(1, 0, 0, 1, -345.6541564573405, -40.240333230052386)"><path d="M89.104,219.999h26.626c17.666,51.873,66.863,89.289,124.637,89.289c41.424,0,78.433-19.241,102.577-49.248h34.228&#10;&#9;&#9;c6.352,0,11.5-5.148,11.5-11.5v-28.541h5.184c12.474,0,22.621-10.148,22.621-22.622V139.54c0-11.022-7.926-20.224-18.376-22.217&#10;&#9;&#9;c-7.547-34.184-26.132-63.235-54.028-84.307C315.476,11.417,279.615,0,240.366,0C160.701,0,97.864,47.184,82.511,117.9&#10;&#9;&#9;c-9.268,2.83-16.029,11.459-16.029,21.64v57.837C66.482,209.851,76.63,219.999,89.104,219.999z M89.482,196.999v-57.081h24.789&#10;&#9;&#9;c-3.588,11.963-5.525,24.633-5.525,37.748c0,6.567,0.49,13.021,1.423,19.333H89.482z M240.366,286.288&#10;&#9;&#9;c-59.894,0-108.621-48.728-108.621-108.622c0-59.894,48.727-108.62,108.621-108.62c59.895,0,108.622,48.727,108.622,108.62&#10;&#9;&#9;c0,21.898-6.52,42.297-17.709,59.374h-97.586c-6.351,0-11.5,5.149-11.5,11.5c0,6.352,5.149,11.5,11.5,11.5h77.398&#10;&#9;&#9;C292.073,276.391,267.355,286.288,240.366,286.288z M365.671,237.04h-7.857c2.777-5.474,5.188-11.163,7.189-17.041h0.667V237.04z&#10;&#9;&#9; M393.476,196.999h-22.91c0.933-6.311,1.423-12.766,1.423-19.333c0-13.115-1.938-25.785-5.525-37.748h27.013V196.999z M240.366,23&#10;&#9;&#9;c66.29,0,118.756,37.303,133.954,93.918h-17.217c-21.988-42.08-66.06-70.872-116.737-70.872&#10;&#9;&#9;c-50.676,0-94.748,28.792-116.736,70.872h-17.22C121.593,60.338,174.166,23,240.366,23z" style="fill: rgb(36, 145, 165);" transform="matrix(1, 0, 0, 1, 0, 0)"/></g>
	<g transform="matrix(1, 0, 0, 1, -341.52696522306553, -28.89049530029297)"><path d="M358.477,314.352H122.065c-36.506,0-66.206,29.699-66.206,66.205v88.484c0,6.352,5.149,11.5,11.5,11.5&#10;&#9;&#9;s11.5-5.148,11.5-11.5v-88.484c0-23.823,19.382-43.205,43.206-43.205h236.412c23.824,0,43.207,19.382,43.207,43.206v88.484&#10;&#9;&#9;c0,6.352,5.148,11.5,11.5,11.5c6.352,0,11.5-5.148,11.5-11.5v-88.484C424.684,344.052,394.984,314.352,358.477,314.352z" style="fill: rgb(36, 145, 165);" transform="matrix(1, 0, 0, 1, 0, 0)"/></g>
<path d="M -72.9893569946289 131.6662139892578 C -72.9893569946289 131.6662139892578 -72.9893569946289 131.6662139892578 -98.78443908691406 119.28457641601562" style="fill: rgb(36, 145, 165); fill-opacity: 1; stroke: rgb(0, 0, 0); stroke-opacity: 1; stroke-width: 0; paint-order: fill;"/><path d="M -121.48411560058594 67.69440460205078 L -121.48411560058594 67.69440460205078 L -96.72083282470703 29.517675399780273" style="fill: rgb(36, 145, 165); fill-opacity: 1; stroke: rgb(0, 0, 0); stroke-opacity: 1; stroke-width: 0; paint-order: stroke;" transform="matrix(1, 0, 0, 1, -79.44886383738833, -84.60788138248219)"/></g><g>
</g><g>
</g><g>
</g><g>
</g><g>
</g><g>
</g><g>
</g><g>
</g><g>
</g><g>
</g><g>
</g><g>
</g><g>
</g><g>
</g><g>
</g></g><g transform="matrix(0.8559137582778931, 0, 0, 0.8559137582778931, 607.8069190979004, 79.26277160644531)"><g transform="matrix(0.5798320770263673, 0, 0, 0.5798320770263673, 89.28015430672502, 96.92017650439973)">
	<g transform="matrix(1, 0, 0, 1, -345.6541564573405, -40.240333230052386)"><path d="M89.104,219.999h26.626c17.666,51.873,66.863,89.289,124.637,89.289c41.424,0,78.433-19.241,102.577-49.248h34.228&#10;&#9;&#9;c6.352,0,11.5-5.148,11.5-11.5v-28.541h5.184c12.474,0,22.621-10.148,22.621-22.622V139.54c0-11.022-7.926-20.224-18.376-22.217&#10;&#9;&#9;c-7.547-34.184-26.132-63.235-54.028-84.307C315.476,11.417,279.615,0,240.366,0C160.701,0,97.864,47.184,82.511,117.9&#10;&#9;&#9;c-9.268,2.83-16.029,11.459-16.029,21.64v57.837C66.482,209.851,76.63,219.999,89.104,219.999z M89.482,196.999v-57.081h24.789&#10;&#9;&#9;c-3.588,11.963-5.525,24.633-5.525,37.748c0,6.567,0.49,13.021,1.423,19.333H89.482z M240.366,286.288&#10;&#9;&#9;c-59.894,0-108.621-48.728-108.621-108.622c0-59.894,48.727-108.62,108.621-108.62c59.895,0,108.622,48.727,108.622,108.62&#10;&#9;&#9;c0,21.898-6.52,42.297-17.709,59.374h-97.586c-6.351,0-11.5,5.149-11.5,11.5c0,6.352,5.149,11.5,11.5,11.5h77.398&#10;&#9;&#9;C292.073,276.391,267.355,286.288,240.366,286.288z M365.671,237.04h-7.857c2.777-5.474,5.188-11.163,7.189-17.041h0.667V237.04z&#10;&#9;&#9; M393.476,196.999h-22.91c0.933-6.311,1.423-12.766,1.423-19.333c0-13.115-1.938-25.785-5.525-37.748h27.013V196.999z M240.366,23&#10;&#9;&#9;c66.29,0,118.756,37.303,133.954,93.918h-17.217c-21.988-42.08-66.06-70.872-116.737-70.872&#10;&#9;&#9;c-50.676,0-94.748,28.792-116.736,70.872h-17.22C121.593,60.338,174.166,23,240.366,23z" style="fill: rgb(36, 145, 165);" transform="matrix(1, 0, 0, 1, 0, 0)"/></g>
	<g transform="matrix(1, 0, 0, 1, -341.52696522306553, -28.89049530029297)"><path d="M358.477,314.352H122.065c-36.506,0-66.206,29.699-66.206,66.205v88.484c0,6.352,5.149,11.5,11.5,11.5&#10;&#9;&#9;s11.5-5.148,11.5-11.5v-88.484c0-23.823,19.382-43.205,43.206-43.205h236.412c23.824,0,43.207,19.382,43.207,43.206v88.484&#10;&#9;&#9;c0,6.352,5.148,11.5,11.5,11.5c6.352,0,11.5-5.148,11.5-11.5v-88.484C424.684,344.052,394.984,314.352,358.477,314.352z" style="fill: rgb(36, 145, 165);" transform="matrix(1, 0, 0, 1, 0, 0)"/></g>
<path d="M -72.9893569946289 131.6662139892578 C -72.9893569946289 131.6662139892578 -72.9893569946289 131.6662139892578 -98.78443908691406 119.28457641601562" style="fill: rgb(36, 145, 165); fill-opacity: 1; stroke: rgb(0, 0, 0); stroke-opacity: 1; stroke-width: 0; paint-order: fill;"/><path d="M -121.48411560058594 67.69440460205078 L -121.48411560058594 67.69440460205078 L -96.72083282470703 29.517675399780273" style="fill: rgb(36, 145, 165); fill-opacity: 1; stroke: rgb(0, 0, 0); stroke-opacity: 1; stroke-width: 0; paint-order: stroke;" transform="matrix(1, 0, 0, 1, -79.44886383738833, -84.60788138248219)"/></g><g>
</g><g>
</g><g>
</g><g>
</g><g>
</g><g>
</g><g>
</g><g>
</g><g>
</g><g>
</g><g>
</g><g>
</g><g>
</g><g>
</g><g>
</g></g></svg>