<?xml version="1.0" encoding="utf-8"?>
<svg id="master-artboard" viewBox="0 0 515.4306030273438 523.6842041015625" version="1.1" xmlns="http://www.w3.org/2000/svg" x="0px" y="0px" style="enable-background:new 0 0 1400 980;" width="515.4306030273438px" height="523.6842041015625px"><rect id="ee-background" x="0" y="0" width="515.4306030273438" height="523.6842041015625" style="fill: white; fill-opacity: 0; pointer-events: none;"/><g transform="matrix(0.9870720505714417, 0, 0, 0.9870720505714417, 7.4649658203125, 8.540664672851562)"><g>
	<g>
		<g>
			<path d="M119.468,162.135c-9.412,0-17.067-7.654-17.067-17.067c0-4.71-3.823-8.533-8.533-8.533c-4.71,0-8.533,3.823-8.533,8.533&#10;&#9;&#9;&#9;&#9;c0,15.855,10.923,29.107,25.6,32.922v1.212c0,4.71,3.823,8.533,8.533,8.533s8.533-3.823,8.533-8.533v-1.212&#10;&#9;&#9;&#9;&#9;c14.677-3.814,25.6-17.067,25.6-32.922c0-18.825-15.309-34.133-34.133-34.133c-9.412,0-17.067-7.654-17.067-17.067&#10;&#9;&#9;&#9;&#9;c0-9.412,7.654-17.067,17.067-17.067s17.067,7.654,17.067,17.067c0,4.71,3.823,8.533,8.533,8.533c4.71,0,8.533-3.823,8.533-8.533&#10;&#9;&#9;&#9;&#9;c0-15.855-10.923-29.107-25.6-32.922v-1.212c0-4.71-3.823-8.533-8.533-8.533s-8.533,3.823-8.533,8.533v1.212&#10;&#9;&#9;&#9;&#9;c-14.677,3.814-25.6,17.067-25.6,32.922c0,18.825,15.309,34.133,34.133,34.133c9.412,0,17.067,7.654,17.067,17.067&#10;&#9;&#9;&#9;&#9;C136.534,154.481,128.88,162.135,119.468,162.135z" style="fill: rgb(36, 145, 165);" transform="matrix(0.9999999999999999, 0, 0, 0.9999999999999999, 6.180387973785514, 2.4721554849517133)"/>
			<path d="M503.468,494.935h-42.667v-409.6h34.133c3.447,0,6.562-2.082,7.885-5.265c1.323-3.191,0.589-6.861-1.852-9.301&#10;&#9;&#9;&#9;&#9;L432.701,2.502c-3.337-3.336-8.73-3.336-12.066,0l-68.267,68.267c-2.441,2.44-3.174,6.11-1.852,9.301&#10;&#9;&#9;&#9;&#9;c1.323,3.183,4.437,5.265,7.885,5.265h34.133v409.6h-17.067v-179.2c0-4.71-3.823-8.533-8.533-8.533h-50.492&#10;&#9;&#9;&#9;&#9;c-4.71,0-8.533,3.823-8.533,8.533v179.2h-17.775v-230.4c0-4.71-3.823-8.533-8.533-8.533h-51.2c-4.71,0-8.533,3.823-8.533,8.533&#10;&#9;&#9;&#9;&#9;v230.4h-17.067V298.669c0-4.71-3.823-8.533-8.533-8.533h-51.2c-4.71,0-8.533,3.823-8.533,8.533v196.267h-17.067v-128&#10;&#9;&#9;&#9;&#9;c0-4.71-3.823-8.533-8.533-8.533h-51.2c-4.71,0-8.533,3.823-8.533,8.533v128H8.534c-4.71,0-8.533,3.823-8.533,8.533&#10;&#9;&#9;&#9;&#9;s3.823,8.533,8.533,8.533h51.2c4.71,0,8.533-3.823,8.533-8.533v-128h34.133v128c0,4.71,3.823,8.533,8.533,8.533h34.133&#10;&#9;&#9;&#9;&#9;c4.71,0,8.533-3.823,8.533-8.533V307.202h34.133v196.267c0,4.71,3.823,8.533,8.533,8.533h34.133c4.71,0,8.533-3.823,8.533-8.533&#10;&#9;&#9;&#9;&#9;v-230.4h34.133v230.4c0,4.71,3.823,8.533,8.533,8.533h34.842c4.71,0,8.533-3.823,8.533-8.533v-179.2h33.425v179.2&#10;&#9;&#9;&#9;&#9;c0,4.71,3.823,8.533,8.533,8.533h34.133c4.71,0,8.533-3.823,8.533-8.533V76.802c0-4.71-3.823-8.533-8.533-8.533h-22.067&#10;&#9;&#9;&#9;&#9;l47.667-47.667l47.667,47.667h-22.067c-4.71,0-8.533,3.823-8.533,8.533v426.667c0,4.71,3.823,8.533,8.533,8.533h51.2&#10;&#9;&#9;&#9;&#9;c4.71,0,8.533-3.823,8.533-8.533S508.178,494.935,503.468,494.935z" style="fill: rgb(36, 145, 165);"/>
			<path d="M119.468,238.935c65.877,0,119.467-53.589,119.467-119.467S185.345,0.002,119.468,0.002S0.001,53.591,0.001,119.469&#10;&#9;&#9;&#9;&#9;S53.59,238.935,119.468,238.935z M119.468,17.069c56.465,0,102.4,45.935,102.4,102.4s-45.935,102.4-102.4,102.4&#10;&#9;&#9;&#9;&#9;s-102.4-45.935-102.4-102.4S63.003,17.069,119.468,17.069z" style="fill: rgb(239, 202, 8);" transform="matrix(0.9999999999999999, 0, 0, 0.9999999999999999, 3.708219700262589, 2.47215041180732)"/>
		<path d="M 638.4201049804688 251.67469787597656" style="fill: rgb(239, 202, 8); fill-opacity: 1; stroke: rgb(0, 0, 0); stroke-opacity: 1; stroke-width: 0; paint-order: fill;"/></g>
	</g>
</g><g>
</g><g>
</g><g>
</g><g>
</g><g>
</g><g>
</g><g>
</g><g>
</g><g>
</g><g>
</g><g>
</g><g>
</g><g>
</g><g>
</g><g>
</g></g></svg>