<?xml version="1.0" encoding="utf-8"?>
<svg id="master-artboard" viewBox="0 0 62.21852111816406 61.16782760620117" version="1.1" xmlns="http://www.w3.org/2000/svg" x="0px" y="0px" style="enable-background:new 0 0 1400 980;" width="62.21852111816406px" height="61.16782760620117px"><rect id="ee-background" x="0" y="0" width="62.21852111816406" height="61.16782760620117" style="fill: white; fill-opacity: 0; pointer-events: none;"/><g transform="matrix(4.947530269622803, 0, 0, 4.947530269622803, 530.1629638671875, 405.8571586608887)"><title>
    Gatsby
  </title><path d="M 28 14 A 14 14 0 0 1 14 28 A 14 14 0 0 1 0 14 A 14 14 0 0 1 14 0 A 14 14 0 0 1 28 14 Z" fill="#639" transform="matrix(0.41577345984322683, 0, 0, 0.41577345984322683, -106.56979370117188, -81.5511474609375)"/><path fill="#fff" d="M6.2 21.8C4.1 19.7 3 16.9 3 14.2L13.9 25c-2.8-.1-5.6-1.1-7.7-3.2zm10.2 2.9L3.3 11.6C4.4 6.7 8.8 3 14 3c3.7 0 6.9 1.8 8.9 4.5l-1.5 1.3C19.7 6.5 17 5 14 5c-3.9 0-7.2 2.5-8.5 6L17 22.5c2.9-1 5.1-3.5 5.8-6.5H18v-2h7c0 5.2-3.7 9.6-8.6 10.7z" transform="matrix(0.41577345984322683, 0, 0, 0.41577345984322683, -106.56979370117186, -81.5511474609375)"/></g></svg>