<?xml version="1.0" encoding="utf-8"?>
<svg id="master-artboard" viewBox="0 0 59.83714294433594 61.167198181152344" version="1.1" xmlns="http://www.w3.org/2000/svg" x="0px" y="0px" style="enable-background:new 0 0 1400 980;" width="59.83714294433594px" height="61.167198181152344px"><rect id="ee-background" x="0" y="0" width="59.83714294433594" height="61.167198181152344" style="fill: white; fill-opacity: 0; pointer-events: none;"/><g transform="matrix(10.42553256420379, 0, 0, 10.42553256420379, 178.72337633005668, 0.000004540246209217003)"><g transform="matrix(.945094 0 0 .945094 6.301403 4.347014)"><path d="m20.44 13.78c-5.283 7.733-4.625 17.793-.6 26l.296.585.2.37c.037.072.08.143.118.213.07.13.14.255.2.383l.385.673.22.37.447.712.2.3c.2.32.426.638.648.952.005.008.012.017.018.025.035.05.074.1.1.15.192.27.4.536.6.8l.222.288.545.682.208.254a31.65 31.65 0 0 0 .76.884l.016.016c.01.013.02.02.03.033a23.73 23.73 0 0 0 .772.83l.248.254.617.616.252.244a34.49 34.49 0 0 0 .845.783l.16.14.767.66.318.258.64.5.342.265.978.715c.025.017.047.035.072.052.23.16.463.315.697.47l.302.205 1.092.68.302.173.82.468c.15.082.303.16.453.238l.586.3.135.066.24.118.93.438.197.1a32.93 32.93 0 0 0 1.084.459l.264.106 1.023.386.128.046a34.62 34.62 0 0 0 1.14.38l.275.084c.4.12.775.263 1.177.34 25.548 4.756 32.971-15.626 32.971-15.626-6.233 8.27-17.296 10.45-27.778 8.023-.397-.1-.782-.217-1.17-.334l-.292-.1c-.378-.118-.754-.243-1.126-.373l-.155-.057a35.02 35.02 0 0 1 -.993-.375l-.28-.112a31.57 31.57 0 0 1 -1.072-.454l-.214-.096-.904-.43-.26-.128a30.9 30.9 0 0 1 -.7-.363l-.467-.25a26.89 26.89 0 0 1 -.838-.479l-.283-.16c-.368-.22-.732-.45-1.092-.68-.1-.065-.196-.134-.295-.2l-.777-.526-.25-.18-.735-.54-.326-.25-.663-.528-.296-.24-.825-.7c-.028-.025-.06-.05-.1-.077-.294-.263-.583-.533-.868-.804l-.244-.24-.624-.622-.244-.25a31.33 31.33 0 0 1 -.765-.824c-.012-.014-.026-.027-.038-.04a31.49 31.49 0 0 1 -.776-.9l-.203-.246-.56-.703-.205-.26-.645-.875c-5.82-8.085-7.9-19.235-3.26-28.393m12.283-1.188c-3.82 5.6-3.613 13.094-.633 19.016a24.87 24.87 0 0 0 1.69 2.873c.572.835 1.207 1.83 1.967 2.5.275.3.563.6.857.906.074.077.15.15.226.227a25.21 25.21 0 0 0 .876.829c.012.01.023.022.036.032a26.31 26.31 0 0 0 1.031.87l.232.184a25.13 25.13 0 0 0 1.07.796.6.6 0 0 0 .03.023c.16.113.325.22.488.328.078.052.152.107.23.156a21.65 21.65 0 0 0 .793.495l.112.066.7.4c.082.047.166.088.25.132l.5.258c.025.013.05.023.074.035.337.17.676.33 1.023.485.074.033.15.063.226.095.277.12.557.236.84.347l.36.134a26.33 26.33 0 0 0 .77.273l.348.113c.367.117.73.263 1.113.328 19.725 3.328 24.28-12.14 24.28-12.14-4.105 6.02-12.054 8.894-20.538 6.652a21.09 21.09 0 0 1 -1.117-.33c-.113-.035-.224-.072-.336-.1a22.36 22.36 0 0 1 -.781-.274l-.353-.134c-.283-.1-.563-.225-.84-.345-.076-.033-.152-.063-.227-.098a19.53 19.53 0 0 1 -1.03-.487c-.174-.087-.345-.178-.516-.268l-.298-.156a20.05 20.05 0 0 1 -.653-.375l-.156-.1a25.46 25.46 0 0 1 -.79-.492c-.08-.052-.158-.1-.238-.162l-.512-.345a27.46 27.46 0 0 1 -1.066-.794l-.24-.192c-3.713-2.986-6.657-7.066-8.056-11.693-1.467-4.8-1.15-10.185 1.4-14.556m10.648-.38c-2.252 3.376-2.473 7.568-.9 11.296 1.648 3.957 5.025 7.062 8.966 8.533.162.062.325.117.5.173l.216.07c.232.074.463.16.702.206 10.892 2.143 13.846-5.692 14.632-6.845-2.588 3.795-6.937 4.706-12.273 3.387-.42-.105-.885-.26-1.3-.406a15.62 15.62 0 0 1 -1.533-.649 15.81 15.81 0 0 1 -2.688-1.671c-4.785-3.69-7.752-10.728-4.636-16.46" fill="#0868ac" transform="matrix(0.0972752507058012, 0, 0, 0.0972752507058012, -26.281728644065897, -4.442304506574823)"/><g fill="#131b28"/></g></g></svg>